<?xml version="1.0" encoding="utf-8"?>
<!-- Generated by IcoMoon.io -->
<!DOCTYPE svg PUBLIC "-//W3C//DTD SVG 1.1//EN" "http://www.w3.org/Graphics/SVG/1.1/DTD/svg11.dtd">
<svg version="1.1" xmlns="http://www.w3.org/2000/svg" xmlns:xlink="http://www.w3.org/1999/xlink" width="28" height="28" viewBox="0 0 28 28">
<path d="M24 14v2q0 0.828-0.508 1.414t-1.32 0.586h-11l4.578 4.594q0.594 0.562 0.594 1.406t-0.594 1.406l-1.172 1.188q-0.578 0.578-1.406 0.578-0.812 0-1.422-0.578l-10.172-10.187q-0.578-0.578-0.578-1.406 0-0.812 0.578-1.422l10.172-10.156q0.594-0.594 1.422-0.594 0.812 0 1.406 0.594l1.172 1.156q0.594 0.594 0.594 1.422t-0.594 1.422l-4.578 4.578h11q0.812 0 1.32 0.586t0.508 1.414z" fill="#ffffff"></path>
</svg>
