<?xml version="1.0" encoding="utf-8"?>
<!-- Generated by IcoMoon.io -->
<!DOCTYPE svg PUBLIC "-//W3C//DTD SVG 1.1//EN" "http://www.w3.org/Graphics/SVG/1.1/DTD/svg11.dtd">
<svg version="1.1" xmlns="http://www.w3.org/2000/svg" xmlns:xlink="http://www.w3.org/1999/xlink" width="26" height="28" viewBox="0 0 26 28">
<path d="M25.172 13q0 0.828-0.578 1.406l-10.172 10.187q-0.609 0.578-1.422 0.578-0.828 0-1.406-0.578l-10.172-10.187q-0.594-0.562-0.594-1.406 0-0.828 0.594-1.422l1.156-1.172q0.609-0.578 1.422-0.578 0.828 0 1.406 0.578l4.594 4.594v-11q0-0.812 0.594-1.406t1.406-0.594h2q0.812 0 1.406 0.594t0.594 1.406v11l4.594-4.594q0.578-0.578 1.406-0.578 0.812 0 1.422 0.578l1.172 1.172q0.578 0.609 0.578 1.422z" fill="#ffffff"></path>
</svg>
