<?xml version="1.0" encoding="utf-8"?>
<!-- Generated by IcoMoon.io -->
<!DOCTYPE svg PUBLIC "-//W3C//DTD SVG 1.1//EN" "http://www.w3.org/Graphics/SVG/1.1/DTD/svg11.dtd">
<svg version="1.1" xmlns="http://www.w3.org/2000/svg" xmlns:xlink="http://www.w3.org/1999/xlink" width="26" height="28" viewBox="0 0 26 28">
<path d="M2 26h22v-16h-22v16zM8 7v-4.5q0-0.219-0.141-0.359t-0.359-0.141h-1q-0.219 0-0.359 0.141t-0.141 0.359v4.5q0 0.219 0.141 0.359t0.359 0.141h1q0.219 0 0.359-0.141t0.141-0.359zM20 7v-4.5q0-0.219-0.141-0.359t-0.359-0.141h-1q-0.219 0-0.359 0.141t-0.141 0.359v4.5q0 0.219 0.141 0.359t0.359 0.141h1q0.219 0 0.359-0.141t0.141-0.359zM26 6v20q0 0.812-0.594 1.406t-1.406 0.594h-22q-0.812 0-1.406-0.594t-0.594-1.406v-20q0-0.812 0.594-1.406t1.406-0.594h2v-1.5q0-1.031 0.734-1.766t1.766-0.734h1q1.031 0 1.766 0.734t0.734 1.766v1.5h6v-1.5q0-1.031 0.734-1.766t1.766-0.734h1q1.031 0 1.766 0.734t0.734 1.766v1.5h2q0.812 0 1.406 0.594t0.594 1.406z" fill="#ffffff"></path>
</svg>
