<?xml version="1.0" encoding="utf-8"?>
<!-- Generated by IcoMoon.io -->
<!DOCTYPE svg PUBLIC "-//W3C//DTD SVG 1.1//EN" "http://www.w3.org/Graphics/SVG/1.1/DTD/svg11.dtd">
<svg version="1.1" xmlns="http://www.w3.org/2000/svg" xmlns:xlink="http://www.w3.org/1999/xlink" width="36" height="28" viewBox="0 0 36 28">
<path d="M24.953 14.109q0 1.078-0.328 1.656-0.297 0.547-0.812 0.547-0.359 0-0.641-0.141v-3.5q0.453-0.469 0.891-0.469 0.891 0 0.891 1.906zM31.797 13.547h-1.719q0.094-1.531 0.875-1.531 0.797 0 0.844 1.531zM7.438 15.656q0-0.922-0.516-1.43t-1.578-0.898q-0.562-0.203-0.812-0.375t-0.25-0.391q0-0.406 0.594-0.406 0.906 0 1.937 0.516l0.281-1.75q-1.047-0.5-2.328-0.5-1.203 0-1.922 0.594-0.75 0.609-0.75 1.703 0 0.906 0.508 1.414t1.555 0.883q0.609 0.219 0.852 0.398t0.242 0.43q0 0.484-0.75 0.484-0.453 0-1.094-0.195t-1.125-0.477l-0.281 1.766q1.125 0.641 2.625 0.641 1.266 0 2.016-0.578 0.797-0.641 0.797-1.828zM12.047 12.297l0.297-1.734h-1.5v-2.109l-2.016 0.328-0.281 1.781-0.719 0.125-0.266 1.609h0.969v3.422q0 1.313 0.688 1.875 0.594 0.469 1.734 0.469 0.5 0 1.234-0.172v-1.844q-0.5 0.109-0.688 0.109-0.656 0-0.656-0.781v-3.078h1.203zM16.984 12.688v-2.172q-0.234-0.047-0.438-0.047-0.5 0-0.867 0.25t-0.523 0.719l-0.156-0.875h-2.047v7.359h2.344v-4.781q0.406-0.484 1.281-0.484 0.25 0 0.406 0.031zM17.563 17.922h2.344v-7.359h-2.344v7.359zM27.281 14.031q0-1.906-0.703-2.797-0.625-0.812-1.734-0.812-1 0-1.828 0.875l-0.125-0.734h-2.063v10.078l2.344-0.391v-2.359q0.562 0.172 1.062 0.172 1.297 0 2.094-0.875 0.953-1.016 0.953-3.156zM19.969 8.594q0-0.516-0.359-0.875t-0.875-0.359-0.875 0.359-0.359 0.875 0.359 0.883 0.875 0.367 0.875-0.367 0.359-0.883zM34 14.172q0-1.766-0.75-2.75-0.781-1-2.25-1-1.5 0-2.367 1.031t-0.867 2.812q0 2 0.984 2.938 0.859 0.859 2.516 0.859 1.578 0 2.5-0.625l-0.25-1.609q-0.891 0.484-2 0.484-0.672 0-0.984-0.297-0.359-0.297-0.438-1.031h3.875q0.031-0.219 0.031-0.812zM36 4v20q0 0.812-0.594 1.406t-1.406 0.594h-32q-0.812 0-1.406-0.594t-0.594-1.406v-20q0-0.812 0.594-1.406t1.406-0.594h32q0.812 0 1.406 0.594t0.594 1.406z" fill="#ffffff"></path>
</svg>
