<?xml version="1.0" encoding="utf-8"?>
<!-- Generated by IcoMoon.io -->
<!DOCTYPE svg PUBLIC "-//W3C//DTD SVG 1.1//EN" "http://www.w3.org/Graphics/SVG/1.1/DTD/svg11.dtd">
<svg version="1.1" xmlns="http://www.w3.org/2000/svg" xmlns:xlink="http://www.w3.org/1999/xlink" width="30" height="28" viewBox="0 0 30 28">
<path d="M20 13.5q0-0.219-0.141-0.359l-5.5-5.5q-0.141-0.141-0.359-0.141t-0.359 0.141l-5.484 5.484q-0.156 0.187-0.156 0.375 0 0.219 0.141 0.359t0.359 0.141h3.5v5.5q0 0.203 0.148 0.352t0.352 0.148h3q0.203 0 0.352-0.148t0.148-0.352v-5.5h3.5q0.203 0 0.352-0.148t0.148-0.352zM30 18q0 2.484-1.758 4.242t-4.242 1.758h-17q-2.891 0-4.945-2.055t-2.055-4.945q0-2.031 1.094-3.75t2.938-2.578q-0.031-0.469-0.031-0.672 0-3.313 2.344-5.656t5.656-2.344q2.438 0 4.461 1.359t2.945 3.609q1.109-0.969 2.594-0.969 1.656 0 2.828 1.172t1.172 2.828q0 1.188-0.641 2.156 2.031 0.484 3.336 2.117t1.305 3.727z" fill="#ffffff"></path>
</svg>
