<?xml version="1.0" encoding="utf-8"?>
<!-- Generated by IcoMoon.io -->
<!DOCTYPE svg PUBLIC "-//W3C//DTD SVG 1.1//EN" "http://www.w3.org/Graphics/SVG/1.1/DTD/svg11.dtd">
<svg version="1.1" xmlns="http://www.w3.org/2000/svg" xmlns:xlink="http://www.w3.org/1999/xlink" width="28" height="28" viewBox="0 0 28 28">
<path d="M28 14q0 2.719-1.875 5.023t-5.094 3.641-7.031 1.336q-1.094 0-2.266-0.125-3.094 2.734-7.187 3.781-0.766 0.219-1.781 0.344-0.266 0.031-0.477-0.141t-0.273-0.453v-0.016q-0.047-0.063-0.008-0.187t0.031-0.156 0.070-0.148l0.094-0.141t0.109-0.133 0.125-0.141q0.109-0.125 0.484-0.539t0.539-0.594 0.484-0.617 0.508-0.797 0.422-0.922 0.406-1.188q-2.453-1.391-3.867-3.437t-1.414-4.391q0-2.031 1.109-3.883t2.984-3.195 4.469-2.133 5.437-0.789q3.813 0 7.031 1.336t5.094 3.641 1.875 5.023z" fill="#ffffff"></path>
</svg>
