<?xml version="1.0" encoding="utf-8"?>
<!-- Generated by IcoMoon.io -->
<!DOCTYPE svg PUBLIC "-//W3C//DTD SVG 1.1//EN" "http://www.w3.org/Graphics/SVG/1.1/DTD/svg11.dtd">
<svg version="1.1" xmlns="http://www.w3.org/2000/svg" xmlns:xlink="http://www.w3.org/1999/xlink" width="28" height="28" viewBox="0 0 28 28">
<path d="M26 23.5v-12q-0.5 0.562-1.078 1.031-4.188 3.219-6.656 5.281-0.797 0.672-1.297 1.047t-1.352 0.758-1.602 0.383h-0.031q-0.75 0-1.602-0.383t-1.352-0.758-1.297-1.047q-2.469-2.063-6.656-5.281-0.578-0.469-1.078-1.031v12q0 0.203 0.148 0.352t0.352 0.148h23q0.203 0 0.352-0.148t0.148-0.352zM26 7.078v-0.383t-0.008-0.203-0.047-0.195-0.086-0.141-0.141-0.117-0.219-0.039h-23q-0.203 0-0.352 0.148t-0.148 0.352q0 2.625 2.297 4.438 3.016 2.375 6.266 4.953 0.094 0.078 0.547 0.461t0.719 0.586 0.695 0.492 0.789 0.43 0.672 0.141h0.031q0.313 0 0.672-0.141t0.789-0.43 0.695-0.492 0.719-0.586 0.547-0.461q3.25-2.578 6.266-4.953 0.844-0.672 1.57-1.805t0.727-2.055zM28 6.5v17q0 1.031-0.734 1.766t-1.766 0.734h-23q-1.031 0-1.766-0.734t-0.734-1.766v-17q0-1.031 0.734-1.766t1.766-0.734h23q1.031 0 1.766 0.734t0.734 1.766z" fill="#ffffff"></path>
</svg>
