<?xml version="1.0" encoding="utf-8"?>
<!-- Generated by IcoMoon.io -->
<!DOCTYPE svg PUBLIC "-//W3C//DTD SVG 1.1//EN" "http://www.w3.org/Graphics/SVG/1.1/DTD/svg11.dtd">
<svg version="1.1" xmlns="http://www.w3.org/2000/svg" xmlns:xlink="http://www.w3.org/1999/xlink" width="28" height="28" viewBox="0 0 28 28">
<path d="M24 21.5q0 1.859-1.32 3.18t-3.18 1.32h-3v-9.5h3.172l0.469-3.5h-3.641v-2.234q0-0.844 0.438-1.297t1.5-0.453l2.063-0.016v-3.234q-1.5-0.141-2.812-0.141-2.125 0-3.406 1.258t-1.281 3.523v2.594h-3.5v3.5h3.5v9.5h-8.5q-1.859 0-3.18-1.32t-1.32-3.18v-15q0-1.859 1.32-3.18t3.18-1.32h15q1.859 0 3.18 1.32t1.32 3.18v15z" fill="#ffffff"></path>
</svg>
