<?xml version="1.0" encoding="utf-8"?>
<!-- Generated by IcoMoon.io -->
<!DOCTYPE svg PUBLIC "-//W3C//DTD SVG 1.1//EN" "http://www.w3.org/Graphics/SVG/1.1/DTD/svg11.dtd">
<svg version="1.1" xmlns="http://www.w3.org/2000/svg" xmlns:xlink="http://www.w3.org/1999/xlink" width="18" height="28" viewBox="0 0 18 28">
<path d="M5 12h8v-3q0-1.656-1.172-2.828t-2.828-1.172-2.828 1.172-1.172 2.828v3zM18 13.5v9q0 0.625-0.438 1.062t-1.062 0.438h-15q-0.625 0-1.062-0.438t-0.438-1.062v-9q0-0.625 0.438-1.062t1.062-0.438h0.5v-3q0-2.875 2.063-4.937t4.937-2.063 4.937 2.063 2.063 4.937v3h0.5q0.625 0 1.062 0.438t0.438 1.062z" fill="#ffffff"></path>
</svg>
