<?xml version="1.0" encoding="utf-8"?>
<!-- Generated by IcoMoon.io -->
<!DOCTYPE svg PUBLIC "-//W3C//DTD SVG 1.1//EN" "http://www.w3.org/Graphics/SVG/1.1/DTD/svg11.dtd">
<svg version="1.1" xmlns="http://www.w3.org/2000/svg" xmlns:xlink="http://www.w3.org/1999/xlink" width="28" height="28" viewBox="0 0 28 28">
<path d="M27.563 0.172q0.516 0.375 0.422 1l-4 24q-0.078 0.453-0.5 0.703-0.219 0.125-0.484 0.125-0.172 0-0.375-0.078l-8.234-3.359-4.656 5.109q-0.281 0.328-0.734 0.328-0.219 0-0.359-0.063-0.297-0.109-0.469-0.367t-0.172-0.57v-7.063l-7.375-3.016q-0.578-0.219-0.625-0.859-0.047-0.609 0.5-0.922l26-15q0.547-0.328 1.062 0.031zM22.219 23.594l3.453-20.672-22.406 12.922 5.25 2.141 13.484-9.984-7.469 12.453z" fill="#ffffff"></path>
</svg>
