<?xml version="1.0" encoding="utf-8"?>
<!-- Generated by IcoMoon.io -->
<!DOCTYPE svg PUBLIC "-//W3C//DTD SVG 1.1//EN" "http://www.w3.org/Graphics/SVG/1.1/DTD/svg11.dtd">
<svg version="1.1" xmlns="http://www.w3.org/2000/svg" xmlns:xlink="http://www.w3.org/1999/xlink" width="28" height="28" viewBox="0 0 28 28">
<path d="M27.563 0.172q0.516 0.375 0.422 1l-4 24q-0.078 0.453-0.5 0.703-0.219 0.125-0.484 0.125-0.172 0-0.375-0.078l-7.078-2.891-3.781 4.609q-0.281 0.359-0.766 0.359-0.203 0-0.344-0.063-0.297-0.109-0.477-0.367t-0.18-0.57v-5.453l13.5-16.547-16.703 14.453-6.172-2.531q-0.578-0.219-0.625-0.859-0.031-0.625 0.5-0.922l26-15q0.234-0.141 0.5-0.141 0.313 0 0.562 0.172z" fill="#ffffff"></path>
</svg>
