<?xml version="1.0" encoding="utf-8"?>
<!-- Generated by IcoMoon.io -->
<!DOCTYPE svg PUBLIC "-//W3C//DTD SVG 1.1//EN" "http://www.w3.org/Graphics/SVG/1.1/DTD/svg11.dtd">
<svg version="1.1" xmlns="http://www.w3.org/2000/svg" xmlns:xlink="http://www.w3.org/1999/xlink" width="28" height="28" viewBox="0 0 28 28">
<path d="M19.5 2q1.859 0 3.18 1.32t1.32 3.18v15q0 1.859-1.32 3.18t-3.18 1.32h-11.328q1.328-1.906 1.687-3.281 0.141-0.531 0.828-3.266 0.328 0.609 1.148 1.047t1.758 0.438q2.828 0 4.617-2.305t1.789-5.836q0-1.313-0.547-2.539t-1.508-2.172-2.383-1.516-3.078-0.57q-1.625 0-3.039 0.445t-2.391 1.195-1.68 1.711-1.039 2-0.336 2.070q0 1.594 0.617 2.812t1.82 1.719q0.203 0.078 0.367 0t0.227-0.297q0.156-0.688 0.234-0.953 0.094-0.359-0.172-0.656-0.781-0.969-0.781-2.344 0-2.344 1.617-4.008t4.227-1.664q2.328 0 3.633 1.266t1.305 3.281q0 2.625-1.055 4.469t-2.711 1.844q-0.938 0-1.516-0.68t-0.359-1.617q0.125-0.531 0.414-1.445t0.461-1.594 0.172-1.164q0-0.766-0.414-1.273t-1.18-0.508q-0.953 0-1.617 0.883t-0.664 2.18q0 1.125 0.375 1.891l-1.531 6.469q-0.375 1.563-0.109 3.969h-2.859q-1.859 0-3.18-1.32t-1.32-3.18v-15q0-1.859 1.32-3.18t3.18-1.32h15z" fill="#ffffff"></path>
</svg>
