<?xml version="1.0" encoding="utf-8"?>
<!-- Generated by IcoMoon.io -->
<!DOCTYPE svg PUBLIC "-//W3C//DTD SVG 1.1//EN" "http://www.w3.org/Graphics/SVG/1.1/DTD/svg11.dtd">
<svg version="1.1" xmlns="http://www.w3.org/2000/svg" xmlns:xlink="http://www.w3.org/1999/xlink" width="28" height="28" viewBox="0 0 28 28">
<path d="M24 4v7q0 0.406-0.297 0.703t-0.703 0.297h-7q-0.656 0-0.922-0.625-0.266-0.609 0.219-1.078l2.156-2.156q-2.312-2.141-5.453-2.141-1.625 0-3.102 0.633t-2.555 1.711-1.711 2.555-0.633 3.102 0.633 3.102 1.711 2.555 2.555 1.711 3.102 0.633q1.859 0 3.516-0.812t2.797-2.297q0.109-0.156 0.359-0.187 0.219 0 0.391 0.141l2.141 2.156q0.141 0.125 0.148 0.32t-0.117 0.352q-1.703 2.063-4.125 3.195t-5.109 1.133q-2.438 0-4.656-0.953t-3.828-2.562-2.562-3.828-0.953-4.656 0.953-4.656 2.562-3.828 3.828-2.562 4.656-0.953q2.297 0 4.445 0.867t3.82 2.445l2.031-2.016q0.453-0.484 1.094-0.219 0.609 0.266 0.609 0.922z" fill="#ffffff"></path>
</svg>
