<?xml version="1.0" encoding="utf-8"?>
<!-- Generator: Adobe Illustrator 15.1.0, SVG Export Plug-In . SVG Version: 6.00 Build 0)  -->
<!DOCTYPE svg PUBLIC "-//W3C//DTD SVG 1.1//EN" "http://www.w3.org/Graphics/SVG/1.1/DTD/svg11.dtd">
<svg version="1.1" id="Layer_1" xmlns="http://www.w3.org/2000/svg" xmlns:xlink="http://www.w3.org/1999/xlink" x="0px" y="0px"
	 width="30px" height="31px" viewBox="0 0 30 31" enable-background="new 0 0 30 31" xml:space="preserve">
<path fill="#FFFFFF" d="M20.77,13.116c0-2.298-0.791-4.263-2.371-5.896c-1.582-1.633-3.483-2.45-5.707-2.451
	c-2.224,0-4.125,0.816-5.706,2.451c-1.581,1.634-2.372,3.599-2.372,5.896c0,2.295,0.791,4.261,2.372,5.896
	c1.58,1.635,3.482,2.449,5.706,2.449c2.223,0,4.125-0.816,5.707-2.449C19.979,17.379,20.77,15.414,20.77,13.116z M29.999,28.615
	c0,0.645-0.229,1.203-0.687,1.677C28.855,30.764,28.314,31,27.691,31c-0.649,0-1.19-0.236-1.623-0.708l-6.185-6.371
	c-2.151,1.539-4.548,2.31-7.192,2.31c-1.718,0-3.362-0.346-4.93-1.035c-1.569-0.688-2.921-1.62-4.057-2.793
	C2.569,21.227,1.667,19.829,1,18.208c-0.667-1.62-1-3.318-1-5.094C0,11.339,0.333,9.64,1,8.02c0.667-1.621,1.569-3.018,2.705-4.192
	c1.136-1.173,2.488-2.105,4.057-2.794C9.331,0.344,10.974,0,12.692,0c1.718,0,3.361,0.345,4.93,1.034s2.921,1.621,4.058,2.794
	c1.137,1.174,2.038,2.572,2.704,4.192c0.667,1.621,1.001,3.319,1.001,5.094c0,2.732-0.744,5.209-2.234,7.432l6.184,6.392
	C29.777,27.396,30,27.954,30,28.611L29.999,28.615z"/>
</svg>
