<?xml version="1.0" encoding="utf-8"?>
<!-- Generated by IcoMoon.io -->
<!DOCTYPE svg PUBLIC "-//W3C//DTD SVG 1.1//EN" "http://www.w3.org/Graphics/SVG/1.1/DTD/svg11.dtd">
<svg version="1.1" xmlns="http://www.w3.org/2000/svg" xmlns:xlink="http://www.w3.org/1999/xlink" width="28" height="28" viewBox="0 0 28 28">
<path d="M20 18.672q0-1.375-0.977-2.359t-2.352-0.984q-1.313 0-2.266 0.906l-3.766-1.875q0.031-0.25 0.031-0.359t-0.031-0.359l3.766-1.875q0.953 0.906 2.266 0.906 1.375 0 2.352-0.984t0.977-2.359-0.977-2.352-2.352-0.977-2.359 0.977-0.984 2.352q0 0.109 0.031 0.359l-3.766 1.875q-0.969-0.891-2.266-0.891-1.375 0-2.352 0.977t-0.977 2.352 0.977 2.352 2.352 0.977q1.297 0 2.266-0.891l3.766 1.875q-0.031 0.25-0.031 0.359 0 1.375 0.984 2.352t2.359 0.977 2.352-0.977 0.977-2.352zM24 6.5v15q0 1.859-1.32 3.18t-3.18 1.32h-15q-1.859 0-3.18-1.32t-1.32-3.18v-15q0-1.859 1.32-3.18t3.18-1.32h15q1.859 0 3.18 1.32t1.32 3.18z" fill="#ffffff"></path>
</svg>
