<?xml version="1.0" encoding="utf-8"?>
<!-- Generated by IcoMoon.io -->
<!DOCTYPE svg PUBLIC "-//W3C//DTD SVG 1.1//EN" "http://www.w3.org/Graphics/SVG/1.1/DTD/svg11.dtd">
<svg version="1.1" xmlns="http://www.w3.org/2000/svg" xmlns:xlink="http://www.w3.org/1999/xlink" width="28" height="28" viewBox="0 0 28 28">
<path d="M19 16q2.078 0 3.539 1.461t1.461 3.539-1.461 3.539-3.539 1.461-3.539-1.461-1.461-3.539q0-0.187 0.031-0.531l-5.625-2.812q-1.437 1.344-3.406 1.344-2.078 0-3.539-1.461t-1.461-3.539 1.461-3.539 3.539-1.461q1.969 0 3.406 1.344l5.625-2.812q-0.031-0.344-0.031-0.531 0-2.078 1.461-3.539t3.539-1.461 3.539 1.461 1.461 3.539-1.461 3.539-3.539 1.461q-1.969 0-3.406-1.344l-5.625 2.812q0.031 0.344 0.031 0.531t-0.031 0.531l5.625 2.812q1.437-1.344 3.406-1.344z" fill="#ffffff"></path>
</svg>
