<?xml version="1.0" encoding="utf-8"?>
<!-- Generated by IcoMoon.io -->
<!DOCTYPE svg PUBLIC "-//W3C//DTD SVG 1.1//EN" "http://www.w3.org/Graphics/SVG/1.1/DTD/svg11.dtd">
<svg version="1.1" xmlns="http://www.w3.org/2000/svg" xmlns:xlink="http://www.w3.org/1999/xlink" width="28" height="28" viewBox="0 0 28 28">
<path d="M17.953 17.531q0-0.406-0.297-0.703l-2.828-2.828 2.828-2.828q0.297-0.297 0.297-0.703 0-0.422-0.297-0.719l-1.406-1.406q-0.297-0.297-0.719-0.297-0.406 0-0.703 0.297l-2.828 2.828-2.828-2.828q-0.297-0.297-0.703-0.297-0.422 0-0.719 0.297l-1.406 1.406q-0.297 0.297-0.297 0.719 0 0.406 0.297 0.703l2.828 2.828-2.828 2.828q-0.297 0.297-0.297 0.703 0 0.422 0.297 0.719l1.406 1.406q0.297 0.297 0.719 0.297 0.406 0 0.703-0.297l2.828-2.828 2.828 2.828q0.297 0.297 0.703 0.297 0.422 0 0.719-0.297l1.406-1.406q0.297-0.297 0.297-0.719zM24 14q0 3.266-1.609 6.023t-4.367 4.367-6.023 1.609-6.023-1.609-4.367-4.367-1.609-6.023 1.609-6.023 4.367-4.367 6.023-1.609 6.023 1.609 4.367 4.367 1.609 6.023z" fill="#ffffff"></path>
</svg>
