<?xml version="1.0" encoding="utf-8"?>
<!-- Generated by IcoMoon.io -->
<!DOCTYPE svg PUBLIC "-//W3C//DTD SVG 1.1//EN" "http://www.w3.org/Graphics/SVG/1.1/DTD/svg11.dtd">
<svg version="1.1" xmlns="http://www.w3.org/2000/svg" xmlns:xlink="http://www.w3.org/1999/xlink" width="28" height="28" viewBox="0 0 28 28">
<path d="M17.141 16.859l-2.281 2.281q-0.156 0.156-0.359 0.156t-0.359-0.156l-2.141-2.141-2.141 2.141q-0.156 0.156-0.359 0.156t-0.359-0.156l-2.281-2.281q-0.156-0.156-0.156-0.359t0.156-0.359l2.141-2.141-2.141-2.141q-0.156-0.156-0.156-0.359t0.156-0.359l2.281-2.281q0.156-0.156 0.359-0.156t0.359 0.156l2.141 2.141 2.141-2.141q0.156-0.156 0.359-0.156t0.359 0.156l2.281 2.281q0.156 0.156 0.156 0.359t-0.156 0.359l-2.141 2.141 2.141 2.141q0.156 0.156 0.156 0.359t-0.156 0.359zM20.5 14q0-2.312-1.141-4.266t-3.094-3.094-4.266-1.141-4.266 1.141-3.094 3.094-1.141 4.266 1.141 4.266 3.094 3.094 4.266 1.141 4.266-1.141 3.094-3.094 1.141-4.266zM24 14q0 3.266-1.609 6.023t-4.367 4.367-6.023 1.609-6.023-1.609-4.367-4.367-1.609-6.023 1.609-6.023 4.367-4.367 6.023-1.609 6.023 1.609 4.367 4.367 1.609 6.023z" fill="#ffffff"></path>
</svg>
