<?xml version="1.0" encoding="utf-8"?>
<!-- Generated by IcoMoon.io -->
<!DOCTYPE svg PUBLIC "-//W3C//DTD SVG 1.1//EN" "http://www.w3.org/Graphics/SVG/1.1/DTD/svg11.dtd">
<svg version="1.1" xmlns="http://www.w3.org/2000/svg" xmlns:xlink="http://www.w3.org/1999/xlink" width="22" height="28" viewBox="0 0 22 28">
<path d="M8 21.5v-11q0-0.219-0.141-0.359t-0.359-0.141h-1q-0.219 0-0.359 0.141t-0.141 0.359v11q0 0.219 0.141 0.359t0.359 0.141h1q0.219 0 0.359-0.141t0.141-0.359zM12 21.5v-11q0-0.219-0.141-0.359t-0.359-0.141h-1q-0.219 0-0.359 0.141t-0.141 0.359v11q0 0.219 0.141 0.359t0.359 0.141h1q0.219 0 0.359-0.141t0.141-0.359zM16 21.5v-11q0-0.219-0.141-0.359t-0.359-0.141h-1q-0.219 0-0.359 0.141t-0.141 0.359v11q0 0.219 0.141 0.359t0.359 0.141h1q0.219 0 0.359-0.141t0.141-0.359zM7.5 6h7l-0.75-1.828q-0.109-0.141-0.266-0.172h-4.953q-0.156 0.031-0.266 0.172zM22 6.5v1q0 0.219-0.141 0.359t-0.359 0.141h-1.5v14.812q0 1.297-0.734 2.242t-1.766 0.945h-13q-1.031 0-1.766-0.914t-0.734-2.211v-14.875h-1.5q-0.219 0-0.359-0.141t-0.141-0.359v-1q0-0.219 0.141-0.359t0.359-0.141h4.828l1.094-2.609q0.234-0.578 0.844-0.984t1.234-0.406h5q0.625 0 1.234 0.406t0.844 0.984l1.094 2.609h4.828q0.219 0 0.359 0.141t0.141 0.359z" fill="#ffffff"></path>
</svg>
