<?xml version="1.0" encoding="utf-8"?>
<!-- Generator: Adobe Illustrator 15.1.0, SVG Export Plug-In . SVG Version: 6.00 Build 0)  -->
<!DOCTYPE svg PUBLIC "-//W3C//DTD SVG 1.1//EN" "http://www.w3.org/Graphics/SVG/1.1/DTD/svg11.dtd">
<svg version="1.1" id="Layer_1" xmlns="http://www.w3.org/2000/svg" xmlns:xlink="http://www.w3.org/1999/xlink" x="0px" y="0px"
	 width="21px" height="35px" viewBox="-5.5 -3.5 21 35" enable-background="new -5.5 -3.5 21 35" xml:space="preserve">
<path fill="#FFFFFF" d="M15.5-0.591c0,0.303-0.119,0.572-0.361,0.806L0.956,14l14.183,13.784c0.242,0.234,0.361,0.504,0.361,0.807
	s-0.119,0.572-0.361,0.807l-1.804,1.754c-0.239,0.232-0.515,0.349-0.828,0.349s-0.589-0.116-0.828-0.349L-5.14,14.807
	C-5.38,14.572-5.5,14.303-5.5,14s0.12-0.572,0.36-0.807L11.679-3.15c0.239-0.233,0.515-0.35,0.828-0.35s0.589,0.116,0.828,0.35
	l1.804,1.754C15.381-1.163,15.5-0.895,15.5-0.591z"/>
</svg>
