<?xml version="1.0" encoding="utf-8"?>
<!-- Generator: Adobe Illustrator 15.1.0, SVG Export Plug-In . SVG Version: 6.00 Build 0)  -->
<!DOCTYPE svg PUBLIC "-//W3C//DTD SVG 1.1//EN" "http://www.w3.org/Graphics/SVG/1.1/DTD/svg11.dtd">
<svg version="1.1" id="Layer_1" xmlns="http://www.w3.org/2000/svg" xmlns:xlink="http://www.w3.org/1999/xlink" x="0px" y="0px"
	 width="10px" height="28px" viewBox="0 0 10 28" enable-background="new 0 0 10 28" xml:space="preserve">
<path fill="#FFFFFF" d="M9.297,15c0,0.135-0.052,0.255-0.156,0.359L1.86,22.641c-0.104,0.104-0.224,0.155-0.359,0.155
	s-0.255-0.052-0.359-0.155l-0.781-0.781c-0.104-0.104-0.156-0.225-0.156-0.359s0.052-0.255,0.156-0.359L6.502,15L0.361,8.859
	C0.257,8.755,0.205,8.635,0.205,8.5s0.052-0.255,0.156-0.359L1.142,7.36c0.104-0.104,0.224-0.156,0.359-0.156S1.756,7.256,1.86,7.36
	l7.281,7.281C9.245,14.745,9.297,14.865,9.297,15z"/>
</svg>
