<?xml version="1.0" encoding="utf-8"?>
<!-- Generator: Adobe Illustrator 15.1.0, SVG Export Plug-In . SVG Version: 6.00 Build 0)  -->
<!DOCTYPE svg PUBLIC "-//W3C//DTD SVG 1.1//EN" "http://www.w3.org/Graphics/SVG/1.1/DTD/svg11.dtd">
<svg version="1.1" id="Layer_1" xmlns="http://www.w3.org/2000/svg" xmlns:xlink="http://www.w3.org/1999/xlink" x="0px" y="0px"
	 width="27px" height="47px" viewBox="-8.5 -9.5 27 47" enable-background="new -8.5 -9.5 27 47" xml:space="preserve">
<path fill="#FFFFFF" d="M18.5-5.593c0,0.407-0.153,0.768-0.464,1.082L-0.2,14l18.236,18.511c0.311,0.313,0.464,0.676,0.464,1.082
	c0,0.407-0.153,0.768-0.464,1.083l-2.32,2.355c-0.308,0.312-0.661,0.468-1.064,0.468c-0.402,0-0.757-0.155-1.064-0.468
	L-8.038,15.083C-8.347,14.769-8.5,14.407-8.5,14s0.153-0.768,0.462-1.083L13.587-9.03c0.308-0.313,0.662-0.47,1.064-0.47
	c0.403,0,0.757,0.156,1.064,0.47l2.32,2.355C18.347-6.362,18.5-6.001,18.5-5.593z"/>
</svg>
