<?xml version="1.0" encoding="utf-8"?>
<!-- Generator: Adobe Illustrator 15.1.0, SVG Export Plug-In . SVG Version: 6.00 Build 0)  -->
<!DOCTYPE svg PUBLIC "-//W3C//DTD SVG 1.1//EN" "http://www.w3.org/Graphics/SVG/1.1/DTD/svg11.dtd">
<svg version="1.1" id="Layer_1" xmlns="http://www.w3.org/2000/svg" xmlns:xlink="http://www.w3.org/1999/xlink" x="0px" y="0px"
	 width="21px" height="35px" viewBox="-5.5 -3.5 21 35" enable-background="new -5.5 -3.5 21 35" xml:space="preserve">
<path fill="#FFFFFF" d="M15.5,14c0,0.303-0.119,0.572-0.361,0.807L-1.678,31.151c-0.24,0.232-0.517,0.349-0.829,0.349
	s-0.589-0.116-0.829-0.349l-1.804-1.754c-0.24-0.234-0.36-0.504-0.36-0.807s0.12-0.572,0.36-0.807L9.044,14L-5.14,0.215
	C-5.38-0.019-5.5-0.288-5.5-0.591c0-0.304,0.12-0.572,0.36-0.806l1.804-1.754c0.24-0.233,0.517-0.35,0.829-0.35
	s0.589,0.116,0.829,0.35l16.816,16.344C15.381,13.428,15.5,13.697,15.5,14z"/>
</svg>
