<?xml version="1.0" encoding="utf-8"?>
<!-- Generator: Adobe Illustrator 15.1.0, SVG Export Plug-In . SVG Version: 6.00 Build 0)  -->
<!DOCTYPE svg PUBLIC "-//W3C//DTD SVG 1.1//EN" "http://www.w3.org/Graphics/SVG/1.1/DTD/svg11.dtd">
<svg version="1.1" id="Layer_1" xmlns="http://www.w3.org/2000/svg" xmlns:xlink="http://www.w3.org/1999/xlink" x="0px" y="0px"
	 width="27px" height="47px" viewBox="-8.5 -9.5 27 47" enable-background="new -8.5 -9.5 27 47" xml:space="preserve">
<path fill="#FFFFFF" d="M18.5,14c0,0.406-0.153,0.769-0.464,1.083L-3.586,37.032C-3.895,37.345-4.25,37.5-4.652,37.5
	c-0.401,0-0.757-0.155-1.066-0.468l-2.32-2.355C-8.347,34.361-8.5,34-8.5,33.594s0.153-0.769,0.462-1.083L10.2,14L-8.038-4.512
	C-8.347-4.826-8.5-5.186-8.5-5.594s0.153-0.769,0.462-1.082l2.32-2.355C-5.409-9.344-5.053-9.5-4.652-9.5
	c0.402,0,0.757,0.156,1.066,0.469l21.622,21.947C18.347,13.232,18.5,13.594,18.5,14z"/>
</svg>
