<?xml version="1.0" encoding="utf-8"?>
<!-- Generated by IcoMoon.io -->
<!DOCTYPE svg PUBLIC "-//W3C//DTD SVG 1.1//EN" "http://www.w3.org/Graphics/SVG/1.1/DTD/svg11.dtd">
<svg version="1.1" xmlns="http://www.w3.org/2000/svg" xmlns:xlink="http://www.w3.org/1999/xlink" width="28" height="28" viewBox="0 0 28 28">
<path d="M23 15q0 0.844-0.578 1.422l-10.172 10.172q-0.609 0.578-1.422 0.578-0.797 0-1.406-0.578l-1.172-1.172q-0.594-0.594-0.594-1.422t0.594-1.422l4.578-4.578h-11q-0.812 0-1.32-0.586t-0.508-1.414v-2q0-0.828 0.508-1.414t1.32-0.586h11l-4.578-4.594q-0.594-0.562-0.594-1.406t0.594-1.406l1.172-1.172q0.594-0.594 1.406-0.594 0.828 0 1.422 0.594l10.172 10.172q0.578 0.547 0.578 1.406z" fill="#ffffff"></path>
</svg>
