<?xml version="1.0" encoding="utf-8"?>
<!-- Generated by IcoMoon.io -->
<!DOCTYPE svg PUBLIC "-//W3C//DTD SVG 1.1//EN" "http://www.w3.org/Graphics/SVG/1.1/DTD/svg11.dtd">
<svg version="1.1" xmlns="http://www.w3.org/2000/svg" xmlns:xlink="http://www.w3.org/1999/xlink" width="26" height="28" viewBox="0 0 26 28">
<path d="M25.172 15.172q0 0.797-0.578 1.406l-1.172 1.172q-0.594 0.594-1.422 0.594-0.844 0-1.406-0.594l-4.594-4.578v11q0 0.812-0.586 1.32t-1.414 0.508h-2q-0.828 0-1.414-0.508t-0.586-1.32v-11l-4.594 4.578q-0.562 0.594-1.406 0.594t-1.406-0.594l-1.172-1.172q-0.594-0.594-0.594-1.406 0-0.828 0.594-1.422l10.172-10.172q0.547-0.578 1.406-0.578 0.844 0 1.422 0.578l10.172 10.172q0.578 0.609 0.578 1.422z" fill="#ffffff"></path>
</svg>
