<?xml version="1.0" encoding="utf-8"?>
<!-- Generator: Adobe Illustrator 15.1.0, SVG Export Plug-In . SVG Version: 6.00 Build 0)  -->
<!DOCTYPE svg PUBLIC "-//W3C//DTD SVG 1.1//EN" "http://www.w3.org/Graphics/SVG/1.1/DTD/svg11.dtd">
<svg version="1.1" id="Layer_1" xmlns="http://www.w3.org/2000/svg" xmlns:xlink="http://www.w3.org/1999/xlink" x="0px" y="0px"
	 width="24px" height="24px" viewBox="0 0 24 24" enable-background="new 0 0 24 24" xml:space="preserve">
<path fill="#FFFFFF" d="M24,19.312c0,0.537-0.189,0.996-0.566,1.373l-2.748,2.746C20.309,23.811,19.852,24,19.312,24
	c-0.537,0-0.996-0.189-1.373-0.566L12,17.494l-5.939,5.938C5.683,23.811,5.225,24,4.687,24s-0.995-0.189-1.373-0.566l-2.748-2.748
	C0.189,20.309,0,19.852,0,19.312c0-0.537,0.189-0.996,0.567-1.373L6.506,12L0.567,6.061C0.189,5.683,0,5.225,0,4.687
	s0.189-0.995,0.567-1.373l2.748-2.748C3.692,0.189,4.149,0,4.687,0s0.996,0.189,1.374,0.567L12,6.506l5.939-5.939
	C18.316,0.189,18.775,0,19.312,0s0.994,0.189,1.373,0.567l2.746,2.748C23.811,3.692,24,4.149,24,4.687s-0.189,0.996-0.566,1.374
	L17.494,12l5.938,5.939C23.811,18.316,24,18.775,24,19.312z"/>
</svg>
