<?xml version="1.0" encoding="utf-8"?>
<!-- Generated by IcoMoon.io -->
<!DOCTYPE svg PUBLIC "-//W3C//DTD SVG 1.1//EN" "http://www.w3.org/Graphics/SVG/1.1/DTD/svg11.dtd">
<svg version="1.1" xmlns="http://www.w3.org/2000/svg" xmlns:xlink="http://www.w3.org/1999/xlink" width="28" height="28" viewBox="0 0 28 28">
<path d="M14 6q-3.187 0-5.961 1.086t-4.406 2.93-1.633 3.984q0 1.75 1.117 3.336t3.148 2.742l1.359 0.781-0.422 1.5q-0.375 1.422-1.094 2.688 2.375-0.984 4.297-2.672l0.672-0.594 0.891 0.094q1.078 0.125 2.031 0.125 3.187 0 5.961-1.086t4.406-2.93 1.633-3.984-1.633-3.984-4.406-2.93-5.961-1.086zM28 14q0 2.719-1.875 5.023t-5.094 3.641-7.031 1.336q-1.094 0-2.266-0.125-3.094 2.734-7.187 3.781-0.766 0.219-1.781 0.344h-0.078q-0.234 0-0.422-0.164t-0.25-0.43v-0.016q-0.047-0.063-0.008-0.187t0.031-0.156 0.070-0.148l0.094-0.141t0.109-0.133 0.125-0.141q0.109-0.125 0.484-0.539t0.539-0.594 0.484-0.617 0.508-0.797 0.422-0.922 0.406-1.188q-2.453-1.391-3.867-3.437t-1.414-4.391q0-2.719 1.875-5.023t5.094-3.641 7.031-1.336 7.031 1.336 5.094 3.641 1.875 5.023z" fill="#ffffff"></path>
</svg>
