<?xml version="1.0" encoding="utf-8"?>
<!-- Generated by IcoMoon.io -->
<!DOCTYPE svg PUBLIC "-//W3C//DTD SVG 1.1//EN" "http://www.w3.org/Graphics/SVG/1.1/DTD/svg11.dtd">
<svg version="1.1" xmlns="http://www.w3.org/2000/svg" xmlns:xlink="http://www.w3.org/1999/xlink" width="28" height="28" viewBox="0 0 28 28">
<path d="M11 6q-2.391 0-4.469 0.812t-3.305 2.203-1.227 2.984q0 1.281 0.828 2.469t2.328 2.063l1.516 0.875-0.547 1.313q0.531-0.313 0.969-0.609l0.688-0.484 0.828 0.156q1.219 0.219 2.391 0.219 2.391 0 4.469-0.812t3.305-2.203 1.227-2.984-1.227-2.984-3.305-2.203-4.469-0.812zM11 4q2.984 0 5.523 1.070t4.008 2.914 1.469 4.016-1.469 4.016-4.008 2.914-5.523 1.070q-1.344 0-2.75-0.25-1.937 1.375-4.344 2-0.562 0.141-1.344 0.25h-0.047q-0.172 0-0.32-0.125t-0.18-0.328q-0.016-0.047-0.016-0.102t0.008-0.102 0.031-0.094l0.039-0.078t0.055-0.086 0.063-0.078 0.070-0.078 0.063-0.070q0.078-0.094 0.359-0.391t0.406-0.461 0.352-0.453 0.391-0.602 0.32-0.688q-1.937-1.125-3.047-2.766t-1.109-3.5q0-2.172 1.469-4.016t4.008-2.914 5.523-1.070zM23.844 22.266q0.156 0.375 0.32 0.688t0.391 0.602 0.352 0.453 0.406 0.461 0.359 0.391q0.016 0.016 0.063 0.070t0.070 0.078 0.063 0.078 0.055 0.086l0.039 0.078t0.031 0.094 0.008 0.102-0.016 0.102q-0.047 0.219-0.203 0.344t-0.344 0.109q-0.781-0.109-1.344-0.25-2.406-0.625-4.344-2-1.406 0.25-2.75 0.25-4.234 0-7.375-2.063 0.906 0.063 1.375 0.063 2.516 0 4.828-0.703t4.125-2.016q1.953-1.437 3-3.313t1.047-3.969q0-1.203-0.359-2.375 2.016 1.109 3.187 2.781t1.172 3.594q0 1.875-1.109 3.508t-3.047 2.758z" fill="#ffffff"></path>
</svg>
