<?xml version="1.0" encoding="utf-8"?>
<!-- Generated by IcoMoon.io -->
<!DOCTYPE svg PUBLIC "-//W3C//DTD SVG 1.1//EN" "http://www.w3.org/Graphics/SVG/1.1/DTD/svg11.dtd">
<svg version="1.1" xmlns="http://www.w3.org/2000/svg" xmlns:xlink="http://www.w3.org/1999/xlink" width="30" height="28" viewBox="0 0 30 28">
<path d="M29.359 14.875q0 0.484-0.484 1.031l-5.25 6.188q-0.672 0.797-1.883 1.352t-2.242 0.555h-17q-0.531 0-0.945-0.203t-0.414-0.672q0-0.484 0.484-1.031l5.25-6.188q0.672-0.797 1.883-1.352t2.242-0.555h17q0.531 0 0.945 0.203t0.414 0.672zM24 9.5v2.5h-13q-1.469 0-3.078 0.742t-2.562 1.867l-5.344 6.281q0-0.063-0.008-0.195t-0.008-0.195v-15q0-1.437 1.031-2.469t2.469-1.031h5q1.437 0 2.469 1.031t1.031 2.469v0.5h8.5q1.437 0 2.469 1.031t1.031 2.469z" fill="#ffffff"></path>
</svg>
