<?xml version="1.0" encoding="utf-8"?>
<!-- Generated by IcoMoon.io -->
<!DOCTYPE svg PUBLIC "-//W3C//DTD SVG 1.1//EN" "http://www.w3.org/Graphics/SVG/1.1/DTD/svg11.dtd">
<svg version="1.1" xmlns="http://www.w3.org/2000/svg" xmlns:xlink="http://www.w3.org/1999/xlink" width="28" height="28" viewBox="0 0 28 28">
<path d="M12 2q3.266 0 6.023 1.609t4.367 4.367 1.609 6.023-1.609 6.023-4.367 4.367-6.023 1.609-6.023-1.609-4.367-4.367-1.609-6.023 1.609-6.023 4.367-4.367 6.023-1.609zM16.281 10.141q-0.031 0.016-0.148 0.148t-0.211 0.148q0.031 0 0.070-0.078t0.078-0.172 0.055-0.109q0.094-0.109 0.344-0.234 0.219-0.094 0.812-0.187 0.531-0.125 0.797 0.172-0.031-0.031 0.148-0.203t0.227-0.187q0.047-0.031 0.234-0.070t0.234-0.117l0.031-0.344q-0.187 0.016-0.273-0.109t-0.102-0.328q0 0.031-0.094 0.125 0-0.109-0.070-0.125t-0.18 0.016-0.141 0.016q-0.156-0.047-0.234-0.117t-0.125-0.258-0.063-0.234q-0.031-0.078-0.148-0.164t-0.148-0.164q-0.016-0.031-0.039-0.086t-0.047-0.102-0.063-0.086-0.086-0.039-0.109 0.078-0.117 0.156-0.070 0.078q-0.047-0.031-0.094-0.023t-0.070 0.016-0.070 0.047-0.078 0.055q-0.047 0.031-0.133 0.047t-0.133 0.031q0.234-0.078-0.016-0.172-0.156-0.063-0.25-0.047 0.141-0.063 0.117-0.187t-0.133-0.219h0.078q-0.016-0.063-0.133-0.133t-0.273-0.133-0.203-0.094q-0.125-0.078-0.531-0.148t-0.516-0.008q-0.078 0.094-0.070 0.164t0.063 0.219 0.055 0.195q0.016 0.094-0.086 0.203t-0.102 0.187q0 0.109 0.219 0.242t0.156 0.336q-0.047 0.125-0.25 0.25t-0.25 0.187q-0.078 0.125-0.023 0.289t0.164 0.258q0.031 0.031 0.023 0.063t-0.055 0.070-0.086 0.063-0.102 0.055l-0.047 0.031q-0.172 0.078-0.32-0.094t-0.211-0.406q-0.109-0.391-0.25-0.469-0.359-0.125-0.453 0.016-0.078-0.203-0.641-0.406-0.391-0.141-0.906-0.063 0.094-0.016 0-0.234-0.109-0.234-0.297-0.187 0.047-0.094 0.063-0.273t0.016-0.211q0.047-0.203 0.187-0.359 0.016-0.016 0.109-0.133t0.148-0.211 0.008-0.094q0.547 0.063 0.781-0.172 0.078-0.078 0.18-0.266t0.164-0.266q0.141-0.094 0.219-0.086t0.227 0.086 0.227 0.078q0.219 0.016 0.242-0.172t-0.117-0.313q0.187 0.016 0.047-0.266-0.078-0.109-0.125-0.141-0.187-0.063-0.422 0.078-0.125 0.063 0.031 0.125-0.016-0.016-0.148 0.164t-0.258 0.273-0.25-0.078q-0.016-0.016-0.086-0.211t-0.148-0.211q-0.125 0-0.25 0.234 0.047-0.125-0.172-0.234t-0.375-0.125q0.297-0.187-0.125-0.422-0.109-0.063-0.32-0.078t-0.305 0.063q-0.078 0.109-0.086 0.18t0.078 0.125 0.164 0.086 0.18 0.063 0.133 0.047q0.219 0.156 0.125 0.219-0.031 0.016-0.133 0.055t-0.18 0.070-0.094 0.063q-0.047 0.063 0 0.219t-0.031 0.219q-0.078-0.078-0.141-0.273t-0.109-0.258q0.109 0.141-0.391 0.094l-0.156-0.016q-0.063 0-0.25 0.031t-0.32 0.016-0.211-0.125q-0.063-0.125 0-0.313 0.016-0.063 0.063-0.031-0.063-0.047-0.172-0.148t-0.156-0.133q-0.719 0.234-1.469 0.641 0.094 0.016 0.187-0.016 0.078-0.031 0.203-0.102t0.156-0.086q0.531-0.219 0.656-0.109l0.078-0.078q0.219 0.25 0.313 0.391-0.109-0.063-0.469-0.016-0.313 0.094-0.344 0.187 0.109 0.187 0.078 0.281-0.063-0.047-0.18-0.156t-0.227-0.172-0.234-0.078q-0.25 0-0.344 0.016-2.281 1.25-3.672 3.469 0.109 0.109 0.187 0.125 0.063 0.016 0.078 0.141t0.039 0.172 0.18-0.047q0.141 0.125 0.047 0.297 0.016-0.016 0.688 0.422 0.297 0.266 0.328 0.328 0.047 0.172-0.156 0.281-0.016-0.031-0.141-0.141t-0.141-0.063q-0.047 0.078 0.008 0.289t0.164 0.195q-0.109 0-0.148 0.25t-0.039 0.555-0.016 0.367l0.031 0.016q-0.047 0.187 0.086 0.539t0.336 0.305q-0.203 0.047 0.313 0.672 0.094 0.125 0.125 0.141 0.047 0.031 0.187 0.117t0.234 0.156 0.156 0.164q0.063 0.078 0.156 0.352t0.219 0.367q-0.031 0.094 0.148 0.313t0.164 0.359q-0.016 0-0.039 0.016t-0.039 0.016q0.047 0.109 0.242 0.219t0.242 0.203q0.016 0.047 0.031 0.156t0.047 0.172 0.125 0.031q0.031-0.313-0.375-0.969-0.234-0.391-0.266-0.453-0.047-0.078-0.086-0.242t-0.070-0.227q0.031 0 0.094 0.023t0.133 0.055 0.117 0.063 0.031 0.047q-0.047 0.109 0.031 0.273t0.187 0.289 0.266 0.297 0.187 0.203q0.094 0.094 0.219 0.305t0 0.211q0.141 0 0.313 0.156t0.266 0.313q0.078 0.125 0.125 0.406t0.078 0.375q0.031 0.109 0.133 0.211t0.195 0.148l0.25 0.125t0.203 0.109q0.078 0.031 0.289 0.164t0.336 0.18q0.156 0.063 0.25 0.063t0.227-0.039 0.211-0.055q0.234-0.031 0.453 0.234t0.328 0.328q0.562 0.297 0.859 0.172-0.031 0.016 0.008 0.117t0.125 0.242 0.141 0.227 0.086 0.133q0.078 0.094 0.281 0.234t0.281 0.234q0.094-0.063 0.109-0.141-0.047 0.125 0.109 0.313t0.281 0.156q0.219-0.047 0.219-0.5-0.484 0.234-0.766-0.281 0-0.016-0.039-0.086t-0.063-0.133-0.039-0.133 0-0.117 0.078-0.047q0.141 0 0.156-0.055t-0.031-0.195-0.063-0.203q-0.016-0.125-0.172-0.313t-0.187-0.234q-0.078 0.141-0.25 0.125t-0.25-0.141q0 0.016-0.023 0.086t-0.023 0.102q-0.203 0-0.234-0.016 0.016-0.047 0.039-0.273t0.055-0.352q0.016-0.063 0.086-0.187t0.117-0.227 0.063-0.195-0.070-0.148-0.273-0.039q-0.297 0.016-0.406 0.313-0.016 0.047-0.047 0.164t-0.078 0.18-0.141 0.109q-0.109 0.047-0.375 0.031t-0.375-0.078q-0.203-0.125-0.352-0.453t-0.148-0.578q0-0.156 0.039-0.414t0.047-0.391-0.086-0.383q0.047-0.031 0.141-0.148t0.156-0.164q0.031-0.016 0.070-0.023t0.070 0 0.063-0.023 0.047-0.094q-0.016-0.016-0.063-0.047-0.047-0.047-0.063-0.047 0.109 0.047 0.445-0.023t0.43 0.023q0.234 0.172 0.344-0.031 0-0.016-0.039-0.148t-0.008-0.211q0.078 0.422 0.453 0.141 0.047 0.047 0.242 0.078t0.273 0.078q0.047 0.031 0.109 0.086t0.086 0.070 0.078-0.008 0.133-0.102q0.156 0.219 0.187 0.375 0.172 0.625 0.297 0.688 0.109 0.047 0.172 0.031t0.070-0.148 0-0.219-0.023-0.195l-0.016-0.125v-0.281l-0.016-0.125q-0.234-0.047-0.289-0.187t0.023-0.289 0.234-0.289q0.016-0.016 0.125-0.055t0.242-0.102 0.195-0.125q0.328-0.297 0.234-0.547 0.109 0 0.172-0.141-0.016 0-0.078-0.047t-0.117-0.078-0.070-0.031q0.141-0.078 0.031-0.25 0.078-0.047 0.117-0.172t0.117-0.156q0.141 0.187 0.328 0.031 0.109-0.125 0.016-0.25 0.078-0.109 0.32-0.164t0.289-0.148q0.109 0.031 0.125-0.031t0.016-0.187 0.047-0.187q0.063-0.078 0.234-0.141t0.203-0.078l0.266-0.172q0.047-0.063 0-0.063 0.281 0.031 0.484-0.172 0.156-0.172-0.094-0.313 0.047-0.094-0.047-0.148t-0.234-0.086q0.047-0.016 0.18-0.008t0.164-0.023q0.234-0.156-0.109-0.25-0.266-0.078-0.672 0.187zM13.734 23.844q3.219-0.562 5.484-2.953-0.047-0.047-0.195-0.070t-0.195-0.055q-0.281-0.109-0.375-0.125 0.016-0.109-0.039-0.203t-0.125-0.141-0.195-0.125-0.172-0.109q-0.031-0.031-0.109-0.094t-0.109-0.086-0.117-0.070-0.133-0.031-0.156 0.016l-0.047 0.016q-0.047 0.016-0.086 0.039t-0.086 0.047-0.063 0.047 0 0.039q-0.328-0.266-0.562-0.344-0.078-0.016-0.172-0.086t-0.164-0.109-0.156-0.023-0.18 0.109q-0.078 0.078-0.094 0.234t-0.031 0.203q-0.109-0.078 0-0.273t0.031-0.289q-0.047-0.094-0.164-0.070t-0.187 0.070-0.18 0.133-0.141 0.102-0.133 0.086-0.133 0.117q-0.047 0.063-0.094 0.187t-0.078 0.172q-0.031-0.063-0.18-0.102t-0.148-0.086q0.031 0.156 0.063 0.547t0.078 0.594q0.109 0.484-0.187 0.75-0.422 0.391-0.453 0.625-0.063 0.344 0.187 0.406 0 0.109-0.125 0.32t-0.109 0.336q0 0.094 0.031 0.25z" fill="#ffffff"></path>
</svg>
