<?xml version="1.0" encoding="utf-8"?>
<!-- Generated by IcoMoon.io -->
<!DOCTYPE svg PUBLIC "-//W3C//DTD SVG 1.1//EN" "http://www.w3.org/Graphics/SVG/1.1/DTD/svg11.dtd">
<svg version="1.1" xmlns="http://www.w3.org/2000/svg" xmlns:xlink="http://www.w3.org/1999/xlink" width="26" height="28" viewBox="0 0 26 28">
<path d="M11.484 12.437q0 0.562 0.5 1.102t1.211 1.062 1.414 1.148 1.203 1.625 0.5 2.219q0 1.406-0.75 2.703-1.125 1.906-3.297 2.805t-4.656 0.898q-2.063 0-3.852-0.648t-2.68-2.148q-0.578-0.938-0.578-2.047 0-1.266 0.695-2.344t1.852-1.797q2.047-1.281 6.312-1.563-0.5-0.656-0.742-1.156t-0.242-1.141q0-0.562 0.328-1.328-0.719 0.063-1.062 0.063-2.312 0-3.898-1.508t-1.586-3.82q0-1.281 0.562-2.484t1.547-2.047q1.203-1.031 2.852-1.531t3.398-0.5h6.531l-2.156 1.375h-2.047q1.156 0.984 1.75 2.078t0.594 2.5q0 1.125-0.383 2.023t-0.922 1.453-1.086 1.016-0.93 0.961-0.383 1.031zM9.203 10.938q0.594 0 1.219-0.258t1.031-0.68q0.828-0.891 0.828-2.484 0-0.906-0.266-1.953t-0.758-2.023-1.32-1.617-1.828-0.641q-0.656 0-1.289 0.305t-1.023 0.82q-0.734 0.922-0.734 2.5 0 0.719 0.156 1.523t0.492 1.609 0.812 1.445 1.172 1.047 1.508 0.406zM9.234 24.578q0.906 0 1.742-0.203t1.547-0.609 1.141-1.141 0.43-1.703q0-0.391-0.109-0.766t-0.227-0.656-0.422-0.648-0.461-0.547-0.602-0.539-0.57-0.453-0.648-0.469-0.57-0.406q-0.25-0.031-0.75-0.031-0.828 0-1.641 0.109t-1.68 0.391-1.516 0.719-1.070 1.164-0.422 1.648q0 1.094 0.547 1.93t1.43 1.297 1.859 0.688 1.992 0.227zM21.891 10.891h3.328v1.687h-3.328v3.422h-1.641v-3.422h-3.313v-1.687h3.313v-3.391h1.641v3.391z" fill="#ffffff"></path>
</svg>
