<?xml version="1.0" encoding="utf-8"?>
<!-- Generated by IcoMoon.io -->
<!DOCTYPE svg PUBLIC "-//W3C//DTD SVG 1.1//EN" "http://www.w3.org/Graphics/SVG/1.1/DTD/svg11.dtd">
<svg version="1.1" xmlns="http://www.w3.org/2000/svg" xmlns:xlink="http://www.w3.org/1999/xlink" width="28" height="28" viewBox="0 0 28 28">
<path d="M12.953 19.031q0 1.188-0.914 1.758t-2.18 0.57q-0.641 0-1.258-0.148t-1.18-0.445-0.906-0.828-0.344-1.219q0-0.719 0.391-1.25t1.023-0.805 1.281-0.391 1.32-0.117q0.313 0 0.484 0.031 0.031 0.016 0.359 0.258t0.406 0.297 0.359 0.281 0.383 0.344 0.297 0.352 0.266 0.406 0.141 0.414 0.070 0.492zM11.797 10.516q0 0.938-0.516 1.555t-1.437 0.617q-0.828 0-1.453-0.664t-0.898-1.508-0.273-1.656q0-0.953 0.5-1.625t1.437-0.672q0.828 0 1.461 0.703t0.906 1.578 0.273 1.672zM13.453 6.5l1.375-1h-4.141q-1.328 0-2.516 0.5t-1.992 1.531-0.805 2.391q0 1.453 1.008 2.414t2.477 0.961q0.344 0 0.672-0.047-0.203 0.453-0.203 0.844 0 0.688 0.625 1.469-2.734 0.187-4.016 0.984-0.734 0.453-1.18 1.141t-0.445 1.484q0 0.672 0.289 1.211t0.758 0.883 1.078 0.578 1.211 0.328 1.195 0.094q0.938 0 1.883-0.242t1.773-0.719 1.344-1.289 0.516-1.828q0-0.766-0.313-1.398t-0.766-1.039-0.906-0.742-0.766-0.688-0.313-0.695 0.242-0.664 0.586-0.617 0.688-0.656 0.586-0.93 0.242-1.289q0-0.938-0.352-1.555t-1.133-1.414h1.297zM18 13.5h2v-1h-2v-2h-1v2h-2v1h2v2.5h1v-2.5zM24 6.5v15q0 1.859-1.32 3.18t-3.18 1.32h-15q-1.859 0-3.18-1.32t-1.32-3.18v-15q0-1.859 1.32-3.18t3.18-1.32h15q1.859 0 3.18 1.32t1.32 3.18z" fill="#ffffff"></path>
</svg>
