<?xml version="1.0" encoding="utf-8"?>
<!-- Generated by IcoMoon.io -->
<!DOCTYPE svg PUBLIC "-//W3C//DTD SVG 1.1//EN" "http://www.w3.org/Graphics/SVG/1.1/DTD/svg11.dtd">
<svg version="1.1" xmlns="http://www.w3.org/2000/svg" xmlns:xlink="http://www.w3.org/1999/xlink" width="28" height="28" viewBox="0 0 28 28">
<path d="M15.984 15h4.937q-0.016-0.047-0.039-0.125t-0.039-0.125l-3.313-7.75h-11.062l-3.313 7.75q-0.016 0.031-0.039 0.125t-0.039 0.125h4.937l1.484 3h5zM24 15.469v7.531q0 0.406-0.297 0.703t-0.703 0.297h-22q-0.406 0-0.703-0.297t-0.297-0.703v-7.531q0-0.969 0.391-1.922l3.719-8.625q0.156-0.391 0.57-0.656t0.82-0.266h13q0.406 0 0.82 0.266t0.57 0.656l3.719 8.625q0.391 0.953 0.391 1.922z" fill="#ffffff"></path>
</svg>
