<?xml version="1.0" encoding="utf-8"?>
<!-- Generated by IcoMoon.io -->
<!DOCTYPE svg PUBLIC "-//W3C//DTD SVG 1.1//EN" "http://www.w3.org/Graphics/SVG/1.1/DTD/svg11.dtd">
<svg version="1.1" xmlns="http://www.w3.org/2000/svg" xmlns:xlink="http://www.w3.org/1999/xlink" width="28" height="28" viewBox="0 0 28 28">
<path d="M16 21.5v-2.5q0-0.219-0.141-0.359t-0.359-0.141h-1.5v-8q0-0.219-0.141-0.359t-0.359-0.141h-5q-0.219 0-0.359 0.141t-0.141 0.359v2.5q0 0.219 0.141 0.359t0.359 0.141h1.5v5h-1.5q-0.219 0-0.359 0.141t-0.141 0.359v2.5q0 0.219 0.141 0.359t0.359 0.141h7q0.219 0 0.359-0.141t0.141-0.359zM14 7.5v-2.5q0-0.219-0.141-0.359t-0.359-0.141h-3q-0.219 0-0.359 0.141t-0.141 0.359v2.5q0 0.219 0.141 0.359t0.359 0.141h3q0.219 0 0.359-0.141t0.141-0.359zM24 14q0 3.266-1.609 6.023t-4.367 4.367-6.023 1.609-6.023-1.609-4.367-4.367-1.609-6.023 1.609-6.023 4.367-4.367 6.023-1.609 6.023 1.609 4.367 4.367 1.609 6.023z" fill="#ffffff"></path>
</svg>
