<?xml version="1.0" encoding="utf-8"?>
<!-- Generated by IcoMoon.io -->
<!DOCTYPE svg PUBLIC "-//W3C//DTD SVG 1.1//EN" "http://www.w3.org/Graphics/SVG/1.1/DTD/svg11.dtd">
<svg version="1.1" xmlns="http://www.w3.org/2000/svg" xmlns:xlink="http://www.w3.org/1999/xlink" width="28" height="28" viewBox="0 0 28 28">
<path d="M28 10q0 0.406-0.297 0.703l-8 8q-0.297 0.297-0.703 0.297t-0.703-0.297-0.297-0.703v-4h-3.5q-1.531 0-2.742 0.094t-2.406 0.336-2.078 0.664-1.648 1.086-1.25 1.578-0.758 2.164-0.273 2.828q0 0.859 0.078 1.922 0 0.094 0.039 0.367t0.039 0.414q0 0.234-0.133 0.391t-0.367 0.156q-0.25 0-0.438-0.266-0.109-0.141-0.203-0.344t-0.211-0.469-0.164-0.375q-1.984-4.453-1.984-7.047 0-3.109 0.828-5.203 2.531-6.297 13.672-6.297h3.5v-4q0-0.406 0.297-0.703t0.703-0.297 0.703 0.297l8 8q0.297 0.297 0.297 0.703z" fill="#ffffff"></path>
</svg>
