<?xml version="1.0" encoding="utf-8"?>
<!-- Generated by IcoMoon.io -->
<!DOCTYPE svg PUBLIC "-//W3C//DTD SVG 1.1//EN" "http://www.w3.org/Graphics/SVG/1.1/DTD/svg11.dtd">
<svg version="1.1" xmlns="http://www.w3.org/2000/svg" xmlns:xlink="http://www.w3.org/1999/xlink" width="28" height="28" viewBox="0 0 28 28">
<path d="M17.375 6.969q0-2.484-3.703-2.484h-1.094q-0.5 0-0.93 0.336t-0.539 0.82l-0.984 4.312q-0.031 0.078-0.031 0.25 0 0.375 0.266 0.617t0.641 0.242h0.828q1.078 0 2.008-0.203t1.758-0.641 1.305-1.273 0.477-1.977zM26.812 9.344q0 4.141-3.437 6.687-3.422 2.516-9.562 2.516h-0.953q-0.5 0-0.922 0.336t-0.531 0.82l-1.141 4.937q-0.125 0.562-0.633 0.961t-1.086 0.398h-3.328q-0.484 0-0.828-0.313t-0.344-0.797q0-0.156 0.203-1.016h2.359q0.531 0 1-0.367t0.594-0.883l1.141-4.937q0.125-0.516 0.586-0.891t0.992-0.375h0.953q6.094 0 9.484-2.5t3.391-6.578q0-2.016-0.797-3.234 2.859 1.437 2.859 5.234zM23.953 6.453q0 4.125-3.453 6.687-3.406 2.516-9.562 2.516h-0.938q-0.5 0-0.93 0.344t-0.539 0.828l-1.141 4.922q-0.125 0.562-0.625 0.961t-1.078 0.398h-3.344q-0.484 0-0.82-0.305t-0.336-0.805q0-0.125 0.031-0.313l4.688-20.328q0.125-0.562 0.633-0.961t1.086-0.398h6.937q1.062 0 1.953 0.063t1.883 0.234 1.773 0.469 1.508 0.789 1.211 1.156 0.773 1.617 0.289 2.125z" fill="#ffffff"></path>
</svg>
