<?xml version="1.0" encoding="utf-8"?>
<!-- Generated by IcoMoon.io -->
<!DOCTYPE svg PUBLIC "-//W3C//DTD SVG 1.1//EN" "http://www.w3.org/Graphics/SVG/1.1/DTD/svg11.dtd">
<svg version="1.1" xmlns="http://www.w3.org/2000/svg" xmlns:xlink="http://www.w3.org/1999/xlink" width="22" height="28" viewBox="0 0 22 28">
<path d="M22 19.375q0 0.422-0.156 1.102t-0.328 1.070q-0.328 0.781-1.906 1.656-1.469 0.797-2.906 0.797-0.422 0-0.82-0.055t-0.898-0.195-0.742-0.227-0.867-0.32-0.766-0.281q-1.531-0.547-2.734-1.297-2-1.234-4.133-3.367t-3.367-4.133q-0.75-1.203-1.297-2.734-0.047-0.141-0.281-0.766t-0.32-0.867-0.227-0.742-0.195-0.898-0.055-0.82q0-1.437 0.797-2.906 0.875-1.578 1.656-1.906 0.391-0.172 1.070-0.328t1.102-0.156q0.219 0 0.328 0.047 0.281 0.094 0.828 1.188 0.172 0.297 0.469 0.844t0.547 0.992 0.484 0.836q0.047 0.063 0.273 0.391t0.336 0.555 0.109 0.445q0 0.313-0.445 0.781t-0.969 0.859-0.969 0.828-0.445 0.719q0 0.141 0.078 0.352t0.133 0.32 0.219 0.375 0.18 0.297q1.188 2.141 2.719 3.672t3.672 2.719q0.031 0.016 0.297 0.18t0.375 0.219 0.32 0.133 0.352 0.078q0.281 0 0.719-0.445t0.828-0.969 0.859-0.969 0.781-0.445q0.219 0 0.445 0.109t0.555 0.336 0.391 0.273q0.391 0.234 0.836 0.484t0.992 0.547 0.844 0.469q1.094 0.547 1.188 0.828 0.047 0.109 0.047 0.328z" fill="#ffffff"></path>
</svg>
