<?xml version="1.0" encoding="utf-8"?>
<!-- Generated by IcoMoon.io -->
<!DOCTYPE svg PUBLIC "-//W3C//DTD SVG 1.1//EN" "http://www.w3.org/Graphics/SVG/1.1/DTD/svg11.dtd">
<svg version="1.1" xmlns="http://www.w3.org/2000/svg" xmlns:xlink="http://www.w3.org/1999/xlink" width="28" height="28" viewBox="0 0 28 28">
<path d="M24 14q0 3.266-1.609 6.023t-4.367 4.367-6.023 1.609q-1.734 0-3.406-0.5 0.922-1.453 1.219-2.562 0.141-0.531 0.844-3.297 0.313 0.609 1.141 1.055t1.781 0.445q1.891 0 3.375-1.070t2.297-2.945 0.812-4.219q0-1.781-0.93-3.344t-2.695-2.547-3.984-0.984q-1.641 0-3.063 0.453t-2.414 1.203-1.703 1.727-1.047 2.023-0.336 2.094q0 1.625 0.625 2.859t1.828 1.734q0.469 0.187 0.594-0.313 0.031-0.109 0.125-0.484t0.125-0.469q0.094-0.359-0.172-0.672-0.797-0.953-0.797-2.359 0-2.359 1.633-4.055t4.273-1.695q2.359 0 3.68 1.281t1.32 3.328q0 2.656-1.070 4.516t-2.742 1.859q-0.953 0-1.531-0.68t-0.359-1.633q0.125-0.547 0.414-1.461t0.469-1.609 0.18-1.18q0-0.781-0.422-1.297t-1.203-0.516q-0.969 0-1.641 0.891t-0.672 2.219q0 1.141 0.391 1.906l-1.547 6.531q-0.266 1.094-0.203 2.766-3.219-1.422-5.203-4.391t-1.984-6.609q0-3.266 1.609-6.023t4.367-4.367 6.023-1.609 6.023 1.609 4.367 4.367 1.609 6.023z" fill="#ffffff"></path>
</svg>
