<?xml version="1.0" encoding="utf-8"?>
<!-- Generated by IcoMoon.io -->
<!DOCTYPE svg PUBLIC "-//W3C//DTD SVG 1.1//EN" "http://www.w3.org/Graphics/SVG/1.1/DTD/svg11.dtd">
<svg version="1.1" xmlns="http://www.w3.org/2000/svg" xmlns:xlink="http://www.w3.org/1999/xlink" width="28" height="28" viewBox="0 0 28 28">
<path d="M19 15v-2q0-0.406-0.297-0.703t-0.703-0.297h-4v-4q0-0.406-0.297-0.703t-0.703-0.297h-2q-0.406 0-0.703 0.297t-0.297 0.703v4h-4q-0.406 0-0.703 0.297t-0.297 0.703v2q0 0.406 0.297 0.703t0.703 0.297h4v4q0 0.406 0.297 0.703t0.703 0.297h2q0.406 0 0.703-0.297t0.297-0.703v-4h4q0.406 0 0.703-0.297t0.297-0.703zM24 14q0 3.266-1.609 6.023t-4.367 4.367-6.023 1.609-6.023-1.609-4.367-4.367-1.609-6.023 1.609-6.023 4.367-4.367 6.023-1.609 6.023 1.609 4.367 4.367 1.609 6.023z" fill="#ffffff"></path>
</svg>
