<?xml version="1.0" encoding="utf-8"?>
<!-- Generated by IcoMoon.io -->
<!DOCTYPE svg PUBLIC "-//W3C//DTD SVG 1.1//EN" "http://www.w3.org/Graphics/SVG/1.1/DTD/svg11.dtd">
<svg version="1.1" xmlns="http://www.w3.org/2000/svg" xmlns:xlink="http://www.w3.org/1999/xlink" width="28" height="28" viewBox="0 0 28 28">
<path d="M14 21.5v-3q0-0.219-0.141-0.359t-0.359-0.141h-3q-0.219 0-0.359 0.141t-0.141 0.359v3q0 0.219 0.141 0.359t0.359 0.141h3q0.219 0 0.359-0.141t0.141-0.359zM18 11q0-1.375-0.867-2.547t-2.164-1.813-2.656-0.641q-3.797 0-5.797 3.328-0.234 0.375 0.125 0.656l2.063 1.563q0.109 0.094 0.297 0.094 0.25 0 0.391-0.187 0.828-1.062 1.344-1.437 0.531-0.375 1.344-0.375 0.75 0 1.336 0.406t0.586 0.922q0 0.594-0.313 0.953t-1.062 0.703q-0.984 0.438-1.805 1.352t-0.82 1.961v0.562q0 0.219 0.141 0.359t0.359 0.141h3q0.219 0 0.359-0.141t0.141-0.359q0-0.297 0.336-0.773t0.852-0.773q0.5-0.281 0.766-0.445t0.719-0.547 0.695-0.75 0.438-0.945 0.195-1.266zM24 14q0 3.266-1.609 6.023t-4.367 4.367-6.023 1.609-6.023-1.609-4.367-4.367-1.609-6.023 1.609-6.023 4.367-4.367 6.023-1.609 6.023 1.609 4.367 4.367 1.609 6.023z" fill="#ffffff"></path>
</svg>
