<?xml version="1.0" encoding="utf-8"?>
<!-- Generated by IcoMoon.io -->
<!DOCTYPE svg PUBLIC "-//W3C//DTD SVG 1.1//EN" "http://www.w3.org/Graphics/SVG/1.1/DTD/svg11.dtd">
<svg version="1.1" xmlns="http://www.w3.org/2000/svg" xmlns:xlink="http://www.w3.org/1999/xlink" width="26" height="28" viewBox="0 0 26 28">
<path d="M10 24q0 0.828-0.586 1.414t-1.414 0.586-1.414-0.586-0.586-1.414 0.586-1.414 1.414-0.586 1.414 0.586 0.586 1.414zM24 24q0 0.828-0.586 1.414t-1.414 0.586-1.414-0.586-0.586-1.414 0.586-1.414 1.414-0.586 1.414 0.586 0.586 1.414zM26 7v8q0 0.375-0.25 0.664t-0.641 0.336l-16.312 1.906q0.016 0.109 0.070 0.336t0.094 0.414 0.039 0.344q0 0.25-0.375 1h14.375q0.406 0 0.703 0.297t0.297 0.703-0.297 0.703-0.703 0.297h-16q-0.406 0-0.703-0.297t-0.297-0.703q0-0.219 0.172-0.617t0.461-0.93 0.32-0.594l-2.766-12.859h-3.187q-0.406 0-0.703-0.297t-0.297-0.703 0.297-0.703 0.703-0.297h4q0.25 0 0.445 0.102t0.313 0.242 0.203 0.383 0.117 0.414 0.086 0.461 0.070 0.398h18.766q0.406 0 0.703 0.297t0.297 0.703z" fill="#ffffff"></path>
</svg>
