<?xml version="1.0" encoding="utf-8"?>
<!-- Generated by IcoMoon.io -->
<!DOCTYPE svg PUBLIC "-//W3C//DTD SVG 1.1//EN" "http://www.w3.org/Graphics/SVG/1.1/DTD/svg11.dtd">
<svg version="1.1" xmlns="http://www.w3.org/2000/svg" xmlns:xlink="http://www.w3.org/1999/xlink" width="28" height="28" viewBox="0 0 28 28">
<path d="M7 7q0-0.828-0.586-1.414t-1.414-0.586-1.414 0.586-0.586 1.414 0.586 1.414 1.414 0.586 1.414-0.586 0.586-1.414zM23.672 16q0 0.828-0.578 1.406l-7.672 7.688q-0.609 0.578-1.422 0.578-0.828 0-1.406-0.578l-11.172-11.188q-0.594-0.578-1.008-1.578t-0.414-1.828v-6.5q0-0.812 0.594-1.406t1.406-0.594h6.5q0.828 0 1.828 0.414t1.594 1.008l11.172 11.156q0.578 0.609 0.578 1.422z" fill="#ffffff"></path>
</svg>
