<?xml version="1.0" encoding="utf-8"?>
<!-- Generated by IcoMoon.io -->
<!DOCTYPE svg PUBLIC "-//W3C//DTD SVG 1.1//EN" "http://www.w3.org/Graphics/SVG/1.1/DTD/svg11.dtd">
<svg version="1.1" xmlns="http://www.w3.org/2000/svg" xmlns:xlink="http://www.w3.org/1999/xlink" width="26" height="28" viewBox="0 0 26 28">
<path d="M12 16v6q0 0.812-0.594 1.406t-1.406 0.594h-8q-0.812 0-1.406-0.594t-0.594-1.406v-6q0-0.812 0.594-1.406t1.406-0.594h8q0.812 0 1.406 0.594t0.594 1.406zM12 4v6q0 0.812-0.594 1.406t-1.406 0.594h-8q-0.812 0-1.406-0.594t-0.594-1.406v-6q0-0.812 0.594-1.406t1.406-0.594h8q0.812 0 1.406 0.594t0.594 1.406zM26 16v6q0 0.812-0.594 1.406t-1.406 0.594h-8q-0.812 0-1.406-0.594t-0.594-1.406v-6q0-0.812 0.594-1.406t1.406-0.594h8q0.812 0 1.406 0.594t0.594 1.406zM26 4v6q0 0.812-0.594 1.406t-1.406 0.594h-8q-0.812 0-1.406-0.594t-0.594-1.406v-6q0-0.812 0.594-1.406t1.406-0.594h8q0.812 0 1.406 0.594t0.594 1.406z" fill="#ffffff"></path>
</svg>
