<?xml version="1.0" encoding="utf-8"?>
<!-- Generated by IcoMoon.io -->
<!DOCTYPE svg PUBLIC "-//W3C//DTD SVG 1.1//EN" "http://www.w3.org/Graphics/SVG/1.1/DTD/svg11.dtd">
<svg version="1.1" xmlns="http://www.w3.org/2000/svg" xmlns:xlink="http://www.w3.org/1999/xlink" width="32" height="28" viewBox="0 0 32 28">
<path d="M0 14q0-2.031 0.797-3.883t2.133-3.187 3.187-2.133 3.883-0.797h12q2.031 0 3.883 0.797t3.187 2.133 2.133 3.187 0.797 3.883-0.797 3.883-2.133 3.187-3.187 2.133-3.883 0.797h-12q-2.031 0-3.883-0.797t-3.187-2.133-2.133-3.187-0.797-3.883zM22 22q1.625 0 3.102-0.633t2.555-1.711 1.711-2.555 0.633-3.102-0.633-3.102-1.711-2.555-2.555-1.711-3.102-0.633-3.102 0.633-2.555 1.711-1.711 2.555-0.633 3.102 0.633 3.102 1.711 2.555 2.555 1.711 3.102 0.633z" fill="#ffffff"></path>
</svg>
