<?xml version="1.0" encoding="utf-8"?>
<!-- Generator: Adobe Illustrator 15.1.0, SVG Export Plug-In . SVG Version: 6.00 Build 0)  -->
<!DOCTYPE svg PUBLIC "-//W3C//DTD SVG 1.1//EN" "http://www.w3.org/Graphics/SVG/1.1/DTD/svg11.dtd">
<svg version="1.1" id="Layer_1" xmlns="http://www.w3.org/2000/svg" xmlns:xlink="http://www.w3.org/1999/xlink" x="0px" y="0px"
	 width="27px" height="23px" viewBox="0 0 27 23" enable-background="new 0 0 27 23" xml:space="preserve">
<path fill="#FFFFFF" d="M27,2.731c-0.766,1.173-1.691,2.173-2.775,3c0.012,0.168,0.018,0.419,0.018,0.755
	c0,1.557-0.217,3.112-0.65,4.663c-0.435,1.553-1.095,3.041-1.979,4.467c-0.887,1.425-1.939,2.687-3.161,3.781
	c-1.224,1.098-2.696,1.971-4.421,2.625C12.306,22.673,10.462,23,8.497,23C5.402,23,2.57,22.131,0,20.395
	c0.4,0.049,0.845,0.072,1.336,0.072c2.57,0,4.86-0.826,6.87-2.479c-1.199-0.024-2.273-0.41-3.222-1.159
	c-0.948-0.749-1.599-1.705-1.952-2.866c0.377,0.061,0.725,0.09,1.045,0.09c0.491,0,0.977-0.064,1.456-0.197
	c-1.279-0.274-2.338-0.943-3.177-2.002C1.517,10.792,1.097,9.561,1.097,8.16V8.088c0.776,0.455,1.61,0.701,2.501,0.736
	C2.845,8.297,2.245,7.608,1.799,6.758C1.353,5.906,1.13,4.983,1.131,3.989c0-1.054,0.252-2.031,0.755-2.929
	C3.268,2.845,4.95,4.273,6.931,5.346c1.982,1.073,4.104,1.669,6.365,1.789c-0.091-0.455-0.137-0.898-0.137-1.33
	c0-1.605,0.54-2.974,1.618-4.105c1.08-1.131,2.386-1.698,3.916-1.699c1.6,0,2.945,0.611,4.041,1.833
	c1.246-0.251,2.416-0.719,3.513-1.402c-0.423,1.378-1.233,2.444-2.433,3.199C24.875,3.511,25.938,3.211,27,2.731L27,2.731z"/>
</svg>
