<?xml version="1.0" encoding="utf-8"?>
<!-- Generated by IcoMoon.io -->
<!DOCTYPE svg PUBLIC "-//W3C//DTD SVG 1.1//EN" "http://www.w3.org/Graphics/SVG/1.1/DTD/svg11.dtd">
<svg version="1.1" xmlns="http://www.w3.org/2000/svg" xmlns:xlink="http://www.w3.org/1999/xlink" width="28" height="28" viewBox="0 0 28 28">
<path d="M14.359 20.359v-2.453q0-0.781-0.453-0.781-0.266 0-0.516 0.25v3.5q0.25 0.25 0.516 0.25 0.453 0 0.453-0.766zM17.234 18.453h1.031v-0.531q0-0.797-0.516-0.797t-0.516 0.797v0.531zM8.313 14.297v1.094h-1.25v6.609h-1.156v-6.609h-1.219v-1.094h3.625zM11.453 16.266v5.734h-1.047v-0.625q-0.609 0.703-1.188 0.703-0.516 0-0.656-0.438-0.094-0.25-0.094-0.844v-4.531h1.031v4.219q0 0.375 0.016 0.406 0.016 0.234 0.234 0.234 0.313 0 0.656-0.484v-4.375h1.047zM15.391 18v2.281q0 0.812-0.109 1.141-0.187 0.656-0.828 0.656-0.547 0-1.062-0.641v0.562h-1.047v-7.703h1.047v2.516q0.5-0.625 1.062-0.625 0.641 0 0.828 0.656 0.109 0.328 0.109 1.156zM19.313 20.016v0.141q0 0.453-0.031 0.672-0.047 0.344-0.234 0.625-0.422 0.625-1.25 0.625-0.812 0-1.266-0.594-0.328-0.422-0.328-1.344v-2.016q0-0.922 0.313-1.344 0.453-0.594 1.25-0.594t1.219 0.594q0.328 0.438 0.328 1.344v1.188h-2.078v1.016q0 0.797 0.531 0.797 0.375 0 0.469-0.406 0-0.016 0.008-0.109t0.008-0.258v-0.336h1.062zM12.266 7.141v2.438q0 0.797-0.5 0.797t-0.5-0.797v-2.438q0-0.812 0.5-0.812t0.5 0.812zM20.594 18.281q0-2.766-0.297-4.062-0.156-0.688-0.672-1.148t-1.188-0.539q-2.125-0.234-6.438-0.234-4.297 0-6.422 0.234-0.688 0.078-1.195 0.539t-0.664 1.148q-0.313 1.359-0.313 4.062 0 2.75 0.313 4.062 0.156 0.672 0.664 1.141t1.18 0.547q2.141 0.234 6.438 0.234t6.438-0.234q0.672-0.078 1.18-0.547t0.664-1.141q0.313-1.313 0.313-4.062zM8.797 8.109l1.406-4.625h-1.172l-0.797 3.047-0.828-3.047h-1.219l0.375 1.078t0.359 1.078q0.547 1.609 0.719 2.469v3.141h1.156v-3.141zM13.312 9.375v-2.031q0-0.906-0.328-1.359-0.453-0.594-1.219-0.594-0.797 0-1.219 0.594-0.328 0.453-0.328 1.359v2.031q0 0.906 0.328 1.359 0.422 0.594 1.219 0.594 0.766 0 1.219-0.594 0.328-0.422 0.328-1.359zM16.141 11.25h1.047v-5.781h-1.047v4.422q-0.344 0.484-0.656 0.484-0.234 0-0.25-0.25-0.016-0.031-0.016-0.406v-4.25h-1.047v4.578q0 0.578 0.094 0.859 0.172 0.422 0.672 0.422 0.562 0 1.203-0.703v0.625zM24 6.5v15q0 1.859-1.32 3.18t-3.18 1.32h-15q-1.859 0-3.18-1.32t-1.32-3.18v-15q0-1.859 1.32-3.18t3.18-1.32h15q1.859 0 3.18 1.32t1.32 3.18z" fill="#ffffff"></path>
</svg>
